<svg width="118" height="18" viewBox="0 0 118 18" fill="none" xmlns="http://www.w3.org/2000/svg">
<path fill-rule="evenodd" clip-rule="evenodd" d="M9.8125 14.0551L4.04485 17.8345L5.85693 11.1812L0.480255 6.86377L7.36782 6.53118L9.8125 0.0834961L12.2572 6.53118L19.1447 6.86377L13.7681 11.1812L15.5801 17.8345L9.8125 14.0551ZM34.4375 14.0551L28.6699 17.8345L30.4819 11.1812L25.1053 6.86377L31.9928 6.53118L34.4375 0.0834961L36.8822 6.53118L43.7697 6.86377L38.3931 11.1812L40.2051 17.8345L34.4375 14.0551ZM53.2949 17.8345L59.0625 14.0551L64.8301 17.8345L63.0181 11.1812L68.3947 6.86377L61.5072 6.53118L59.0625 0.0834961L56.6178 6.53118L49.7303 6.86377L55.1069 11.1812L53.2949 17.8345ZM83.6875 14.0551L77.9199 17.8345L79.7319 11.1812L74.3553 6.86377L81.2428 6.53118L83.6875 0.0834961L86.1322 6.53118L93.0197 6.86377L87.6431 11.1812L89.4551 17.8345L83.6875 14.0551ZM102.545 17.8345L108.312 14.0551L114.08 17.8345L112.268 11.1812L117.645 6.86377L110.757 6.53118L108.312 0.0834961L105.868 6.53118L98.9803 6.86377L104.357 11.1812L102.545 17.8345Z" fill="#FFC54F"/>
</svg>
